<?xml version="1.0" encoding="UTF-8" standalone="no"?>
<svg width="1536" height="864" viewBox="0 0 1536 864" xmlns="http://www.w3.org/2000/svg">
  <rect width="100%" height="100%" fill="black"/>

  <!-- Left eye -->
  <rect x="305" y="370" width="230" height="195" fill="#5bd34b"/>
  <polygon points="322,390 505,395 510,548 468,530 435,548 325,540" fill="#efefef"/>
  <ellipse cx="420" cy="468" rx="22" ry="58" fill="black"/>

  <!-- Right eye -->
  <rect x="1005" y="370" width="230" height="195" fill="#5bd34b"/>
  <polygon points="1025,390 1190,398 1190,545 1030,540" fill="#efefef"/>
  <ellipse cx="1108" cy="468" rx="22" ry="58" fill="black"/>

  <!-- Right antenna -->
  <polygon points="1218,370 1238,210 1255,370" fill="#5bd34b"/>

  <!-- Main bridge -->
  <path d="M 535 430 Q 770 320 1005 430" 
        stroke="#5bd34b" 
        stroke-width="20" 
        fill="none"
        stroke-linecap="round"/>

  <!-- Lower curves -->
  <path d="M 520 545 Q 555 560 575 615" 
        stroke="#5bd34b" 
        stroke-width="14" 
        fill="none"
        stroke-linecap="round"/>

  <path d="M 995 545 Q 965 560 950 610" 
        stroke="#5bd34b" 
        stroke-width="14" 
        fill="none"
        stroke-linecap="round"/>

  <!-- Website -->
  <text x="768" y="395"
        font-family="Arial Rounded MT Bold, Arial, sans-serif"
        font-size="34"
        text-anchor="middle"
        fill="#5bd34b"
        font-weight="bold">QuestNerd.Com</text>

  <!-- Main text -->
  <text x="770" y="520"
        font-family="Verdana, Arial Rounded MT Bold, sans-serif"
        font-size="92"
        text-anchor="middle"
        fill="none"
        stroke="#5bd34b"
        stroke-width="5"
        letter-spacing="2">uestner</text>
</svg>
